HIERARCHY
ROOT Hips
{
	OFFSET 0.00000 0.00000 0.00000
	CHANNELS 6 Xposition Yposition Zposition Zrotation Yrotation Xrotation 
	JOINT RightUpLegDummy
	{
		OFFSET 0 0 0
		CHANNELS 3 Zrotation Yrotation Xrotation
		JOINT RightUpLeg
		{
			OFFSET -3.52197 -3.41223 0.04002
			CHANNELS 3 Zrotation Yrotation Xrotation
			JOINT RightLeg
			{
				OFFSET 0.00006 -17.42390 1.60435
				CHANNELS 3 Zrotation Yrotation Xrotation
				JOINT RightFoot
				{
					OFFSET 0.06153 -16.50078 -1.63901
					CHANNELS 3 Zrotation Yrotation Xrotation
					JOINT RightToes
					{
						OFFSET 0.00298 -1.73825 3.34613
						CHANNELS 3 Zrotation Yrotation Xrotation
						End Site
						{
							OFFSET 0.00480 -0.05416 3.85043
						}
					}
				}
			}
		}
	}
	JOINT SpineDummy
	{
		OFFSET 0 0 0
		CHANNELS 3 Zrotation Yrotation Xrotation
		JOINT Spine
		{
			OFFSET 0.00000 4.68130 0.00000
			CHANNELS 3 Zrotation Yrotation Xrotation
			JOINT Spine1
			{
				OFFSET -0.00000 10.10138 0.05002
				CHANNELS 3 Zrotation Yrotation Xrotation
				JOINT HEadDummy
				{
					OFFSET 0 0 0
					CHANNELS 3 Zrotation Yrotation Xrotation
					JOINT Head
					{
						OFFSET -0.00000 3.43865 0.00438
						CHANNELS 3 Zrotation Yrotation Xrotation
						End Site
						{
							OFFSET -0.11417 5.02924 0.98962
						}
					}
				}
				JOINT LeftShoulder1Dummy
				{
					OFFSET 0 0 0
					CHANNELS 3 Zrotation Yrotation Xrotation
					JOINT LeftShoulder1
					{
						OFFSET 3.53937 -0.14262 -0.08662
						CHANNELS 3 Zrotation Yrotation Xrotation
						JOINT LeftArm
						{
							OFFSET 4.04833 -0.00133 0.12681
							CHANNELS 3 Zrotation Yrotation Xrotation
							JOINT LeftForeArm
							{
								OFFSET 10.33880 -0.01036 -0.55515
								CHANNELS 3 Zrotation Yrotation Xrotation
								JOINT LeftHand
								{
									OFFSET 8.69677 0.07543 0.40060
									CHANNELS 3 Zrotation Yrotation Xrotation
									End Site
									{
										OFFSET 5.28377 -0.21905 0.59205
									}
								}
							}
						}
					}
				}
				JOINT RightShoulderDummy
				{
					OFFSET 0 0 0
					CHANNELS 3 Zrotation Yrotation Xrotation
					JOINT RightShoulder
					{
						OFFSET -3.53937 -0.14262 -0.08660
						CHANNELS 3 Zrotation Yrotation Xrotation
						JOINT RightArm
						{
							OFFSET -4.04833 -0.00133 0.12683
							CHANNELS 3 Zrotation Yrotation Xrotation
							JOINT RightForeArm
							{
								OFFSET -10.37987 -0.01039 -0.55511
								CHANNELS 3 Zrotation Yrotation Xrotation
								JOINT RightHand
								{
									OFFSET -8.67398 0.07538 0.40058
									CHANNELS 3 Zrotation Yrotation Xrotation
									End Site
									{
										OFFSET -5.24810 -0.21916 0.59204
									}
								}
							}
						}
					}
				}
			}
		}
	}
	JOINT LeftUpLegDummy
	{
		OFFSET 0 0 0
		CHANNELS 3 Zrotation Yrotation Xrotation
		JOINT LeftUpLeg
		{
			OFFSET 3.52197 -3.41223 0.04002
			CHANNELS 3 Zrotation Yrotation Xrotation
			JOINT LeftLeg
			{
				OFFSET -0.00012 -17.42399 1.60337
				CHANNELS 3 Zrotation Yrotation Xrotation
				JOINT LeftFoot
				{
					OFFSET -0.09972 -16.50070 -1.63802
					CHANNELS 3 Zrotation Yrotation Xrotation
					JOINT LeftToes
					{
						OFFSET -0.01575 -1.73823 3.34611
						CHANNELS 3 Zrotation Yrotation Xrotation
						End Site
						{
							OFFSET 0.03150 -0.01868 3.85031
						}
					}
				}
			}
		}
	}
}
MOTION
Frames: 17
Frame Time: 0.033333
1.8224 39.5722 -9.6388 -2.8440 7.8857 -3.1438 0.0000 0.0000 0.0000 6.2523 1.1319 -8.4003 -0.8604 -17.2800 3.3513 -2.7514 0.4087 4.8258 0.0000 -0.0000 -0.0000 0.0000 0.0000 0.0000 1.8316 -1.1639 3.6600 4.7116 -2.2178 1.8148 -0.0000 0.0000 -0.0000 3.1150 -4.6021 -2.7108 -0.0000 0.0000 -0.0000 -34.6127 -2.8187 2.5700 -45.3454 -16.3671 -18.3189 -9.4142 4.9830 53.2585 16.8020 -3.1512 -1.2146 -0.0000 0.0000 -0.0000 34.9914 5.2311 3.5825 39.4653 6.2713 -17.4353 10.4565 -2.5193 25.6335 -12.1472 2.5640 -0.8121 0.0000 0.0000 0.0000 0.6853 7.5944 12.2095 -1.4599 6.2328 9.4825 -0.6728 0.0687 -13.5620 0.0000 0.0000 -0.0000
1.8115 39.5940 -9.0464 -2.3140 7.8827 -3.1456 0.0000 0.0000 0.0000 5.8579 0.5290 -8.2416 -1.1763 -16.5503 5.2773 -2.5830 0.3322 2.8977 0.0000 -0.0000 -0.0000 0.0000 0.0000 0.0000 1.1772 -1.2188 3.6196 5.2336 -2.3435 1.5011 -0.0000 0.0000 -0.0000 3.4202 -4.4592 -3.4709 -0.0000 0.0000 -0.0000 -34.0683 -2.8753 2.5578 -46.0898 -16.4537 -17.5759 -9.7880 5.0011 52.5563 16.4068 -3.3569 -1.2126 -0.0000 0.0000 -0.0000 34.8395 5.2143 3.5622 39.5341 6.5798 -17.2142 10.5023 -1.9694 25.0820 -11.9782 2.3204 -0.7771 0.0000 0.0000 0.0000 1.7912 12.8969 12.2243 -1.9884 0.5530 11.8871 -1.7043 0.0577 -12.5060 0.0000 0.0000 -0.0000
1.7721 39.5535 -8.4976 -1.7382 8.0029 -3.2778 0.0000 0.0000 0.0000 5.5380 0.0339 -8.2474 -1.7372 -16.0157 7.5848 -3.1231 0.3464 1.1567 0.0000 -0.0000 -0.0000 0.0000 0.0000 0.0000 0.4834 -1.3107 3.8210 5.6765 -2.4832 1.2114 -0.0000 0.0000 -0.0000 3.7004 -4.5726 -4.3650 -0.0000 0.0000 -0.0000 -33.7046 -2.9319 2.5566 -46.3812 -16.8560 -16.4109 -10.3968 5.0019 52.3009 15.9525 -3.7411 -1.2281 -0.0000 0.0000 -0.0000 34.8230 5.2058 3.5573 39.5220 6.7423 -16.4115 10.7825 -0.5066 23.8143 -11.8738 2.1779 -0.7566 0.0000 0.0000 0.0000 3.0470 19.1754 11.8789 -2.5970 -6.2822 15.5577 -2.5601 0.0648 -11.5045 0.0000 0.0000 -0.0000
1.7400 39.4431 -8.0027 -1.4829 8.0046 -3.5863 0.0000 0.0000 0.0000 5.4561 -0.3998 -8.3117 -2.2230 -15.4391 10.1935 -3.2352 0.2971 -0.7874 0.0000 -0.0000 -0.0000 0.0000 0.0000 0.0000 0.5360 -1.3537 4.2815 5.6823 -2.5002 0.9256 -0.0000 0.0000 -0.0000 3.7993 -4.8089 -5.3628 -0.0000 0.0000 -0.0000 -33.6393 -2.9561 2.5614 -46.2365 -17.5737 -15.3182 -10.9426 4.9953 52.2968 15.7103 -4.0391 -1.2472 -0.0000 0.0000 -0.0000 34.8319 5.1963 3.5535 39.4374 7.0706 -15.4462 11.0951 1.0494 22.7418 -11.7230 2.1424 -0.7433 0.0000 0.0000 0.0000 4.1759 21.5596 10.9269 -3.9200 -8.8730 20.4120 -3.4152 0.0804 -10.7838 0.0000 0.0000 -0.0000
1.7296 39.2755 -7.5600 -1.6242 7.9003 -4.0832 0.0000 0.0000 0.0000 5.6227 -0.8055 -8.3984 -2.5665 -14.8567 13.0559 -2.7702 0.1884 -3.1083 0.0000 -0.0000 -0.0000 0.0000 0.0000 0.0000 1.3509 -1.3756 4.9340 5.3522 -2.4511 0.7293 -0.0000 0.0000 -0.0000 3.6317 -4.8556 -6.2880 -0.0000 0.0000 -0.0000 -33.7576 -2.9469 2.5662 -45.9935 -18.5952 -14.7967 -11.1309 5.0011 52.0359 15.9917 -3.9986 -1.2650 -0.0000 0.0000 -0.0000 34.8138 5.1968 3.5528 39.2360 7.7837 -14.6582 11.2988 2.1087 22.4382 -11.5046 2.2315 -0.7372 0.0000 0.0000 0.0000 5.6731 22.6580 9.4496 -5.7054 -9.7461 26.3263 -5.5173 0.1217 -10.0819 0.0000 0.0000 -0.0000
1.7280 39.0895 -7.1613 -1.9869 7.9507 -4.6842 0.0000 0.0000 0.0000 5.9631 -1.1050 -8.4126 -2.9353 -14.5607 15.7801 -2.2496 0.0985 -5.3161 0.0000 -0.0000 -0.0000 0.0000 0.0000 0.0000 2.3411 -1.4577 5.6769 5.0955 -2.4823 0.6255 -0.0000 0.0000 -0.0000 3.2799 -4.7736 -6.8858 -0.0000 0.0000 -0.0000 -33.9104 -2.9335 2.5708 -45.9400 -19.8711 -14.9013 -10.9298 5.0236 51.3942 16.8790 -3.6163 -1.2848 -0.0000 0.0000 -0.0000 34.8146 5.2144 3.5601 38.8406 8.7486 -14.0563 11.4348 2.7387 22.4683 -11.3224 2.3620 -0.7369 0.0000 0.0000 0.0000 7.3076 23.0915 7.4385 -7.5957 -10.0654 32.9320 -9.3685 0.2900 -8.4999 0.0000 0.0000 -0.0000
1.7193 38.9180 -6.7968 -2.2892 8.2448 -5.2714 0.0000 0.0000 0.0000 6.3065 -1.2698 -8.3203 -3.4844 -14.5791 18.1236 -1.8592 0.0430 -7.0713 0.0000 -0.0000 -0.0000 0.0000 0.0000 0.0000 2.9285 -1.5734 6.4698 5.1711 -2.5966 0.4654 -0.0000 0.0000 -0.0000 2.9683 -4.9634 -6.9665 -0.0000 0.0000 -0.0000 -33.9978 -2.9506 2.5833 -46.1564 -21.2092 -15.1840 -10.6016 5.0519 50.6045 17.9040 -3.1387 -1.2954 -0.0000 0.0000 -0.0000 34.8542 5.2293 3.5696 38.2669 9.7379 -13.6495 11.5484 3.0454 22.3643 -11.2690 2.3921 -0.7360 0.0000 0.0000 0.0000 8.4245 22.2818 4.8950 -9.0795 -9.5244 39.5230 -13.3250 0.6811 -5.8058 0.0000 0.0000 -0.0000
1.7076 38.7866 -6.4424 -2.2453 8.4874 -5.7842 0.0000 0.0000 0.0000 6.3960 -1.4075 -8.0489 -4.0960 -14.5265 19.9980 -1.5675 0.0073 -8.4993 0.0000 -0.0000 -0.0000 0.0000 0.0000 0.0000 2.9092 -1.5812 7.2887 5.4490 -2.6229 0.1764 -0.0000 0.0000 -0.0000 2.8782 -5.5083 -6.5151 -0.0000 0.0000 -0.0000 -33.9832 -2.9945 2.5999 -46.5588 -22.3275 -15.0876 -10.4950 5.0782 49.7765 18.3808 -2.8865 -1.2929 -0.0000 0.0000 -0.0000 34.8889 5.2213 3.5695 37.6621 10.6501 -13.5868 11.5904 2.8889 22.2991 -11.3597 2.2504 -0.7293 0.0000 0.0000 0.0000 8.6576 20.7460 2.2367 -9.3112 -8.0549 45.0748 -14.9538 1.0572 -3.3991 0.0000 0.0000 -0.0000
1.7145 38.7327 -6.0613 -1.7467 8.3295 -6.1952 0.0000 0.0000 0.0000 6.0609 -1.6410 -7.4142 -4.4345 -14.0444 21.1199 -1.4584 -0.0148 -9.6747 0.0000 -0.0000 -0.0000 0.0000 0.0000 0.0000 2.5060 -1.3980 7.9954 5.5632 -2.4265 -0.1039 -0.0000 0.0000 -0.0000 2.9894 -6.0516 -5.7270 -0.0000 0.0000 -0.0000 -33.8938 -3.0142 2.6019 -47.0238 -23.0038 -14.3661 -10.7843 5.1015 48.8693 18.1284 -3.0354 -1.2966 -0.0000 0.0000 -0.0000 34.8430 5.1923 3.5535 37.2641 11.3881 -13.8387 11.5294 2.4063 22.4937 -11.5295 2.0885 -0.7258 0.0000 0.0000 0.0000 8.1247 19.3722 -0.0023 -7.4661 -5.7303 48.6317 -13.5599 1.0220 -2.9196 0.0000 0.0000 -0.0000
1.7553 38.7633 -5.6413 -0.9855 7.7681 -6.4484 0.0000 0.0000 0.0000 5.3934 -1.9616 -6.4812 -4.3509 -13.1399 21.4487 -1.4718 -0.0283 -10.5159 0.0000 -0.0000 -0.0000 0.0000 0.0000 0.0000 2.1463 -1.1077 8.4094 5.2822 -2.0674 -0.2262 -0.0000 0.0000 -0.0000 3.1243 -6.3627 -4.9439 -0.0000 0.0000 -0.0000 -33.7874 -2.9754 2.5795 -47.4949 -23.1007 -13.1222 -11.4094 5.1243 47.8103 17.5367 -3.4268 -1.3095 -0.0000 0.0000 -0.0000 34.6680 5.1526 3.5219 37.2228 11.8223 -14.0822 11.4422 2.0847 22.7329 -11.6157 2.1667 -0.7385 0.0000 0.0000 0.0000 7.1759 18.4204 -1.7786 -3.4918 -2.7018 49.9074 -10.6369 0.6784 -4.3687 0.0000 0.0000 -0.0000
1.8228 38.8323 -5.2081 -0.2668 7.0749 -6.5008 0.0000 0.0000 0.0000 4.6654 -2.2636 -5.5932 -4.0368 -12.0876 21.4176 -1.4074 -0.0377 -11.0746 0.0000 -0.0000 -0.0000 0.0000 0.0000 0.0000 2.0475 -0.8598 8.5284 4.7384 -1.7163 -0.2269 -0.0000 0.0000 -0.0000 3.1013 -6.5462 -4.4621 -0.0000 0.0000 -0.0000 -33.7224 -2.9182 2.5525 -47.9580 -22.5557 -11.6386 -12.2008 5.1560 46.3158 17.0187 -3.6913 -1.3066 -0.0000 0.0000 -0.0000 34.4318 5.1178 3.4871 37.3875 11.9766 -14.0861 11.4257 2.0781 22.7575 -11.4814 2.3635 -0.7478 0.0000 0.0000 0.0000 6.1176 17.5235 -3.4236 1.3059 0.6071 49.3509 -7.9801 0.3774 -6.4743 0.0000 0.0000 -0.0000
1.8999 38.9029 -4.7802 0.2804 6.4283 -6.4174 0.0000 0.0000 0.0000 4.0522 -2.5032 -4.8242 -3.6857 -11.1452 21.2492 -1.3133 -0.0444 -11.5004 0.0000 -0.0000 -0.0000 0.0000 0.0000 0.0000 2.0722 -0.7047 8.5271 4.2421 -1.4694 -0.2177 -0.0000 0.0000 -0.0000 2.8564 -6.6728 -4.3460 -0.0000 0.0000 -0.0000 -33.7447 -2.9114 2.5513 -48.3786 -21.5292 -10.3395 -12.9335 5.2021 44.2386 16.7296 -3.7666 -1.2938 -0.0000 0.0000 -0.0000 34.3238 5.1124 3.4755 37.3956 12.0020 -13.9407 11.4859 2.0758 22.6536 -11.2578 2.2270 -0.7205 0.0000 0.0000 0.0000 5.1321 16.4660 -5.0477 5.2928 3.6585 47.4795 -6.1437 0.2142 -8.2505 0.0000 0.0000 -0.0000
1.9774 38.9753 -4.3534 0.6888 5.7972 -6.3130 0.0000 0.0000 0.0000 3.5629 -2.7161 -3.9471 -3.3122 -10.3826 20.7569 -1.3589 -0.0499 -11.8489 0.0000 -0.0000 -0.0000 0.0000 0.0000 0.0000 2.0521 -0.5886 8.5446 3.9366 -1.2965 -0.2090 -0.0000 0.0000 -0.0000 2.4858 -6.6679 -4.4657 -0.0000 0.0000 -0.0000 -33.8511 -2.9608 2.5778 -48.7640 -20.4900 -9.6819 -13.3580 5.2432 42.4110 16.7488 -4.0336 -1.3322 -0.0000 0.0000 -0.0000 34.4343 5.1407 3.4966 37.0983 11.9285 -13.7922 11.5731 1.9510 22.6930 -11.2661 1.8850 -0.6904 0.0000 0.0000 0.0000 4.3203 15.4750 -6.4932 7.8758 6.2899 44.4700 -4.9250 0.1364 -9.4707 0.0000 0.0000 -0.0000
2.0534 39.0545 -3.9315 0.9414 5.1988 -6.1833 0.0000 0.0000 0.0000 3.2225 -2.8846 -2.9372 -2.9236 -9.8078 19.8686 -1.4499 -0.0541 -12.0816 0.0000 -0.0000 -0.0000 0.0000 0.0000 0.0000 2.0294 -0.4953 8.5506 3.7769 -1.1754 -0.1351 -0.0000 0.0000 -0.0000 2.1610 -6.6054 -4.7294 -0.0000 0.0000 -0.0000 -33.9777 -3.0011 2.6022 -49.1807 -19.9020 -9.8261 -13.3369 5.2498 42.1567 17.1064 -4.6458 -1.4482 -0.0000 0.0000 -0.0000 34.5905 5.1664 3.5207 36.7298 11.6810 -13.6689 11.6440 1.8967 23.0451 -11.5542 2.1434 -0.7326 0.0000 0.0000 0.0000 3.7484 14.7055 -7.7855 9.1741 8.5419 40.5114 -4.2480 0.1061 -10.1026 0.0000 0.0000 -0.0000
2.1280 39.1256 -3.5294 0.9708 4.8461 -5.9313 0.0000 0.0000 0.0000 3.1144 -2.9261 -2.0683 -2.6552 -9.5291 18.9073 -1.3694 -0.0560 -12.2365 0.0000 -0.0000 -0.0000 0.0000 0.0000 0.0000 2.0557 -0.5124 8.4554 3.7556 -1.1972 0.0087 -0.0000 0.0000 -0.0000 1.9960 -6.7281 -5.1829 -0.0000 0.0000 -0.0000 -34.0744 -2.9760 2.5985 -49.5945 -19.8185 -10.4879 -12.9670 5.2232 43.4093 17.5910 -5.0958 -1.5560 -0.0000 0.0000 -0.0000 34.5881 5.1590 3.5175 36.5177 11.3156 -13.6507 11.6653 1.8595 23.5843 -11.7880 3.0818 -0.8358 0.0000 0.0000 0.0000 3.4010 13.9407 -9.2007 9.3123 10.1695 36.0800 -4.0271 0.1003 -10.2322 0.0000 0.0000 -0.0000
2.1990 39.1816 -3.1496 0.8237 4.8540 -5.5746 0.0000 0.0000 0.0000 3.2130 -2.8431 -1.4082 -2.5737 -9.6016 18.0732 -1.1417 -0.0561 -12.3736 0.0000 -0.0000 -0.0000 0.0000 0.0000 0.0000 2.0240 -0.6894 8.3329 3.9033 -1.4182 0.1156 -0.0000 0.0000 -0.0000 2.0241 -7.1584 -5.8422 -0.0000 0.0000 -0.0000 -34.1397 -2.8978 2.5714 -49.8290 -19.9559 -11.2049 -12.5553 5.2033 44.3979 17.8280 -4.9082 -1.5503 -0.0000 0.0000 -0.0000 34.5060 5.1438 3.5041 36.3653 10.9778 -13.9056 11.6194 1.4675 23.9259 -11.7569 3.5664 -0.8793 0.0000 0.0000 0.0000 3.1625 13.0740 -10.8039 8.5013 10.8851 31.5435 -3.8232 0.1067 -9.9367 0.0000 0.0000 -0.0000
2.2640 39.2396 -2.7784 0.6491 4.9328 -5.2699 0.0000 0.0000 0.0000 3.3488 -2.7571 -0.6661 -2.5003 -9.7576 17.1419 -0.9443 -0.0552 -12.4441 0.0000 -0.0000 -0.0000 0.0000 0.0000 0.0000 1.8653 -0.8842 8.3723 4.1038 -1.6653 0.1189 -0.0000 0.0000 -0.0000 2.2411 -7.8432 -6.5707 -0.0000 0.0000 -0.0000 -34.1358 -2.8311 2.5444 -49.7990 -20.1188 -11.6630 -12.3678 5.2160 44.0079 17.7701 -4.4018 -1.4708 -0.0000 0.0000 -0.0000 34.5829 5.1657 3.5198 36.0843 10.6626 -14.4557 11.5214 0.5928 23.8879 -11.7148 2.9545 -0.8184 0.0000 0.0000 0.0000 2.9120 12.5817 -12.2181 7.1691 10.8790 26.7770 -3.1010 0.1213 -8.7625 0.0000 0.0000 -0.0000
